<?xml version="1.0" encoding="UTF-8"?>
<svg xmlns="http://www.w3.org/2000/svg" xmlns:xlink="http://www.w3.org/1999/xlink" version="1.1" width="512" height="512" x="0" y="0" viewBox="0 0 128 128" style="enable-background:new 0 0 512 512" xml:space="preserve">
  <g>
    <g fill="#000" fill-rule="evenodd" clip-rule="evenodd">
      <path d="M44 10a2 2 0 0 1 2 2c0 18.778 15.222 34 34 34a2 2 0 1 1 0 4c-18.778 0-34 15.222-34 34a2 2 0 1 1-4 0c0-18.778-15.222-34-34-34a2 2 0 1 1 0-4c18.778 0 34-15.222 34-34a2 2 0 0 1 2-2zm0 14.198C40.215 35.373 31.373 44.215 20.198 48 31.373 51.785 40.215 60.627 44 71.802 47.785 60.627 56.627 51.785 67.802 48 56.627 44.215 47.785 35.373 44 24.198zM61 78a2 2 0 0 1 2 2c0 9.389 7.611 17 17 17a2 2 0 1 1 0 4c-9.389 0-17 7.611-17 17a2 2 0 1 1-4 0c0-9.389-7.611-17-17-17a2 2 0 1 1 0-4c9.389 0 17-7.611 17-17a2 2 0 0 1 2-2zm0 10.956A21.084 21.084 0 0 1 50.956 99 21.086 21.086 0 0 1 61 109.044 21.086 21.086 0 0 1 71.044 99 21.084 21.084 0 0 1 61 88.956zM98.5 49.5a2 2 0 1 0-4 0C94.5 60.27 85.77 69 75 69a2 2 0 1 0 0 4c10.77 0 19.5 8.73 19.5 19.5a2 2 0 1 0 4 0c0-10.77 8.73-19.5 19.5-19.5a2 2 0 1 0 0-4c-10.77 0-19.5-8.73-19.5-19.5zM84.501 71A23.588 23.588 0 0 0 96.5 59.001 23.586 23.586 0 0 0 108.499 71 23.586 23.586 0 0 0 96.5 82.999 23.588 23.588 0 0 0 84.501 71z" fill="#ffffff" opacity="1" data-original="#000000"/>
    </g>
  </g>
</svg>
