<svg id="Layer_1" enable-background="new 0 0 24 24" height="512" viewBox="0 0 24 24" width="512" xmlns="http://www.w3.org/2000/svg"><g><path d="m12 14.9c-.3 0-.6-.1-.9-.2l-7.9-4.4c-.5-.3-.8-.8-.8-1.3s.3-1 .7-1.2l7.9-4.4c.6-.3 1.3-.3 1.8 0l8.1 4.5c.4.2.7.7.7 1.1s-.3.9-.7 1.1l-8.1 4.5c-.2.2-.5.3-.8.3zm-6.9-5.9 6.9 3.9 6.9-3.9-6.9-3.9zm7-3.9c-.1 0-.1 0 0 0z" fill="rgb(0,0,0)"/></g><g><path d="m12 20.5c-.6 0-1.2-.2-1.7-.5-.8-.5-1.5-.9-2.1-1.1-.4-.2-1-.3-1.8-.5-1.4-.4-2.4-1.7-2.3-3.2l.4-4.8c0-.6.5-1 1.1-.9.6 0 1 .5.9 1.1l-.4 4.8c0 .5.3 1 .8 1.1.8.2 1.4.4 1.9.6.7.3 1.5.7 2.5 1.3.4.3 1 .3 1.4 0 .9-.6 1.8-1 2.5-1.3.5-.2 1.1-.4 1.9-.6.5-.1.8-.6.8-1.1l-.4-4.8c0-.6.4-1 .9-1.1.5 0 1 .4 1.1.9l.4 4.8c.1 1.4-.8 2.8-2.3 3.2-.7.2-1.3.4-1.8.5-.6.2-1.3.6-2.1 1.1-.5.4-1.1.5-1.7.5z" fill="rgb(0,0,0)"/></g><g><path d="m8 21c-.6 0-1-.4-1-1v-6.3c0-1.1.6-2.1 1.5-2.6l2.5-1.5c.5-.3 1.1-.1 1.4.4s.1 1.1-.4 1.4l-2.5 1.4c-.3.2-.5.5-.5.9v6.3c0 .6-.4 1-1 1z" fill="rgb(0,0,0)"/></g></svg>