<svg id="Layer_1" enable-background="new 0 0 24 24" height="512" viewBox="0 0 24 24" width="512" xmlns="http://www.w3.org/2000/svg"><g><path d="m12 22c-1.2 0-2.2-.7-2.7-1.8-.1-.2-.3-.4-.5-.5s-.5-.1-.7 0c-1.1.5-2.4.3-3.2-.6-.9-.8-1.1-2.1-.6-3.2.1-.2.1-.5 0-.7s-.3-.4-.5-.5c-1.1-.5-1.8-1.5-1.8-2.7s.7-2.2 1.8-2.7c.2-.1.4-.2.5-.5.1-.2.1-.5 0-.7-.5-1.1-.3-2.4.6-3.2.8-.9 2.1-1.1 3.2-.6.2.1.5.1.7 0 .3-.1.4-.3.5-.5.5-1.1 1.5-1.8 2.7-1.8s2.2.7 2.7 1.8c.1.2.3.4.5.5s.5.1.7 0c1.1-.5 2.4-.3 3.2.6.9.8 1.1 2.1.6 3.2-.1.2-.1.5 0 .7s.3.4.5.5c1.1.5 1.8 1.5 1.8 2.7s-.7 2.2-1.8 2.7c-.2.1-.4.3-.5.5s-.1.5 0 .7c.5 1.1.3 2.4-.6 3.3s-2.2 1.1-3.3.6c-.2-.1-.5-.1-.7 0s-.4.3-.5.5c-.4 1-1.4 1.7-2.6 1.7zm-3.5-4.4c.4 0 .7.1 1.1.2.7.3 1.3.8 1.6 1.6.2.5.7.5.8.5s.6 0 .8-.5c.3-.7.9-1.3 1.6-1.6s1.5-.3 2.3.1c.5.3.9-.1 1-.2s.4-.5.2-1c-.3-.7-.4-1.5-.1-2.3.3-.7.8-1.3 1.6-1.6.5-.2.5-.7.5-.8s0-.6-.5-.8c-.7-.3-1.3-.9-1.6-1.6s-.3-1.5.1-2.3c.2-.5-.1-.9-.2-1s-.5-.4-1-.2c-.7.3-1.5.4-2.3.1-.7-.3-1.3-.8-1.6-1.6-.2-.5-.7-.6-.8-.6s-.6 0-.8.5c-.3.7-.9 1.3-1.6 1.6-.8.3-1.6.3-2.3 0-.5-.2-.9.1-1 .2s-.4.5-.2 1c.3.7.3 1.5.1 2.3-.3.7-.8 1.3-1.6 1.6-.5.2-.6.7-.6.8s0 .6.5.8c.7.3 1.3.9 1.6 1.6s.3 1.5-.1 2.3c-.2.5.1.9.2 1s.5.4 1 .2.9-.3 1.3-.3z" fill="rgb(0,0,0)"/></g><g><path d="m12 16c-2.2 0-4-1.8-4-4s1.8-4 4-4 4 1.8 4 4-1.8 4-4 4zm0-6c-1.1 0-2 .9-2 2s.9 2 2 2 2-.9 2-2-.9-2-2-2z" fill="rgb(0,0,0)"/></g></svg>