<svg id="Layer_1" enable-background="new 0 0 24 24" height="512" viewBox="0 0 24 24" width="512" xmlns="http://www.w3.org/2000/svg"><g><path d="m18 8c-.6 0-1-.4-1-1v-2c0-.6-.4-1-1-1h-8c-.6 0-1 .4-1 1v2c0 .6-.4 1-1 1s-1-.4-1-1v-2c0-1.7 1.3-3 3-3h8c1.7 0 3 1.3 3 3v2c0 .6-.4 1-1 1z" fill="rgb(0,0,0)"/></g><g><path d="m17 18v-2c1.5 0 2.4 0 2.7-.3s.3-1.2.3-2.7v-2c0-1.5 0-2.4-.3-2.7s-1.2-.3-2.7-.3h-10c-1.5 0-2.4 0-2.7.3s-.3 1.2-.3 2.7v2c0 1.5 0 2.4.3 2.7s1.2.3 2.7.3v2c-2.1 0-3.2 0-4.1-.9s-.9-2-.9-4.1v-2c0-2.1 0-3.2.9-4.1s2-.9 4.1-.9h10c2.1 0 3.2 0 4.1.9s.9 2 .9 4.1v2c0 2.1 0 3.2-.9 4.1s-2 .9-4.1.9z" fill="rgb(0,0,0)"/></g><g><path d="m13 22h-2c-2.1 0-3.2 0-4.1-.9s-.9-2-.9-4.1 0-3.2.9-4.1 2-.9 4.1-.9h2c2.1 0 3.2 0 4.1.9s.9 2 .9 4.1 0 3.2-.9 4.1-2 .9-4.1.9zm-2-8c-1.5 0-2.4 0-2.7.3s-.3 1.2-.3 2.7 0 2.4.3 2.7 1.2.3 2.7.3h2c1.5 0 2.4 0 2.7-.3s.3-1.2.3-2.7 0-2.4-.3-2.7-1.2-.3-2.7-.3z" fill="rgb(0,0,0)"/></g></svg>