<svg id="Layer_1" enable-background="new 0 0 24 24" height="512" viewBox="0 0 24 24" width="512" xmlns="http://www.w3.org/2000/svg"><g><path d="m15 22h-6c-2.1 0-3.2 0-4.1-.9s-.9-2-.9-4.1v-8h2v8c0 1.5 0 2.4.3 2.7s1.2.3 2.7.3h6c1.5 0 2.4 0 2.7-.3s.3-1.2.3-2.7v-8h2v8c0 2.1 0 3.2-.9 4.1s-2 .9-4.1.9z" fill="rgb(0,0,0)"/></g><g><path d="m21 12c-.2 0-.5-.1-.7-.3l-7.7-6.8c-.4-.3-.9-.3-1.3 0l-7.7 6.8c-.4.4-1 .3-1.4-.1s-.3-1 .1-1.4l7.7-6.8c1.1-1 2.8-1 4 0l7.7 6.8c.4.4.5 1 .1 1.4-.3.3-.5.4-.8.4z" fill="rgb(0,0,0)"/></g><g><path d="m14 22c-.6 0-1-.4-1-1v-4c0-.6-.4-1-1-1s-1 .4-1 1v4c0 .6-.4 1-1 1s-1-.4-1-1v-4c0-1.7 1.3-3 3-3s3 1.3 3 3v4c0 .6-.4 1-1 1z" fill="rgb(0,0,0)"/></g></svg>