<svg id="Layer_1" enable-background="new 0 0 24 24" height="512" viewBox="0 0 24 24" width="512" xmlns="http://www.w3.org/2000/svg"><g><path d="m12 20.8c-.4 0-.9-.1-1.3-.3-.6-.3-1.1-.9-1.9-1.9l-5.2-6.6c-1-1.3-1.6-2-1.6-3s.5-1.8 1.4-3l.6-.9.8.6-.8-.6c.6-.9 1-1.5 1.7-1.8.6-.3 1.3-.3 2.4-.3h7.8c1.1 0 1.8 0 2.4.3.7.3 1 .9 1.7 1.8l.6.9c.9 1.3 1.4 2 1.4 3s-.6 1.7-1.6 2.9l-5.3 6.7c-.8 1-1.2 1.6-1.9 1.9-.3.2-.8.3-1.2.3zm-7.2-15.1.8.6-.6.8c-.6 1-1 1.5-1 1.9 0 .3.4.9 1.1 1.8l5.3 6.7c.6.7 1 1.2 1.2 1.3.3.1.6.1.8 0s.6-.6 1.2-1.3l5.3-6.7c.7-1 1.1-1.5 1.1-1.8s-.4-.9-1-1.8l-.6-.9c-.5-.7-.7-1.1-1-1.2-.2-.1-.7-.1-1.5-.1h-7.8c-.8 0-1.3 0-1.5.1s-.5.5-1 1.2z" fill="rgb(0,0,0)"/></g><g><path d="m10.5 13c-.3 0-.6-.1-.8-.4l-1.9-2.3c-.6-.7-.7-1.8-.1-2.6l.5-.8c.3-.5.9-.6 1.4-.3.4.4.5 1 .2 1.5l-.5.7c-.1.1 0 .2 0 .2l1.9 2.3c.4.4.3 1.1-.1 1.4-.1.2-.4.3-.6.3z" fill="rgb(0,0,0)"/></g></svg>