<svg id="Layer_1" enable-background="new 0 0 24 24" height="512" viewBox="0 0 24 24" width="512" xmlns="http://www.w3.org/2000/svg"><g><path d="m12 22c-1.9 0-3.6-.7-4.9-2.1-1.4-1.3-2.1-3-2.1-4.9 0-2 .9-4.3 2.3-5.7l.1-.1c1.2-1.2 2.6-2.7 2.6-5.2 0-.4.2-.8.6-.9.4-.2.8-.1 1.1.2 1.2 1.2 3.1 5 1.7 8.3.2 0 .7-.3 1.8-2.1.1-.3.4-.5.7-.5s.6.1.8.3c1.1 1.2 2.3 3.8 2.3 5.7s-.7 3.6-2.1 4.9c-1.3 1.4-3 2.1-4.9 2.1zm-.5-15.1c-.7 1.7-1.8 2.8-2.6 3.7l-.1.1c-1.1 1.1-1.8 2.8-1.8 4.3 0 1.3.5 2.6 1.5 3.5.9 1 2.2 1.5 3.5 1.5s2.6-.5 3.5-1.5 1.5-2.2 1.5-3.5c0-.9-.5-2.2-1-3.2-.8 1.1-1.5 1.6-2.3 1.8-1 .2-1.8-.4-2.3-.8-.4-.3-.5-.9-.2-1.3.9-1.5.7-3.2.3-4.6z"/></g></svg>