<svg id="Layer_1" enable-background="new 0 0 24 24" height="512" viewBox="0 0 24 24" width="512" xmlns="http://www.w3.org/2000/svg"><g><path d="m12 22c-1.5 0-2.9-.3-4.3-1-1.6-.8-3-2-4-3.5s-1.6-3.3-1.7-5.1.3-3.6 1.2-5.2 2.1-2.9 3.7-3.9c1.5-.8 3.3-1.3 5.1-1.3h.1.3c.4 0 .8.3.9.6s.1.8-.3 1.1c-1.1 1-1.8 2.4-2 3.9s.1 3 1 4.3c.8 1.3 2.1 2.2 3.5 2.7s3 .4 4.4-.2c.4-.2.8-.1 1.1.2s.4.7.2 1.1c-.7 1.8-1.8 3.3-3.2 4.3-1.5 1.1-3.2 1.7-5 1.9-.3.1-.7.1-1 .1zm-1.8-17.8c-.8.2-1.6.5-2.3.9-1.3.8-2.3 1.8-3 3.1s-1 2.7-.9 4.2c.1 1.4.5 2.8 1.3 4.1.8 1.2 1.9 2.2 3.2 2.8s2.8.9 4.2.7c1.4-.1 2.8-.7 4-1.5.6-.4 1.1-.9 1.5-1.5-1.1.1-2.3 0-3.4-.4-1.9-.6-3.5-1.9-4.6-3.5-1.1-1.7-1.5-3.7-1.3-5.6.3-1.2.7-2.3 1.3-3.3z"/></g></svg>