<svg id="Layer_1" enable-background="new 0 0 24 24" height="512" viewBox="0 0 24 24" width="512" xmlns="http://www.w3.org/2000/svg"><g><path d="m12 17c-1.1 0-2-.9-2-2s.9-2 2-2 2 .9 2 2-.9 2-2 2z" fill="rgb(0,0,0)"/></g><g><path d="m15 22h-6c-2.1 0-3.2 0-4.1-.9s-.9-2-.9-4.1v-4c0-2.1 0-3.2.9-4.1s2-.9 4.1-.9h6c2.1 0 3.2 0 4.1.9s.9 2 .9 4.1v4c0 2.1 0 3.2-.9 4.1s-2 .9-4.1.9zm-6-12c-1.5 0-2.4 0-2.7.3s-.3 1.2-.3 2.7v4c0 1.5 0 2.4.3 2.7s1.2.3 2.7.3h6c1.5 0 2.4 0 2.7-.3s.3-1.2.3-2.7v-4c0-1.5 0-2.4-.3-2.7s-1.2-.3-2.7-.3z" fill="rgb(0,0,0)"/></g><g><path d="m9 10c-.6 0-1-.4-1-1v-4c0-1.7 1.3-3 3-3h2.1c1.6 0 2.9 1.3 2.9 2.9 0 .6-.4 1-1 1s-1-.4-1-1-.4-1-.9-1h-2.1c-.6 0-1 .4-1 1v4c0 .7-.4 1.1-1 1.1z" fill="rgb(0,0,0)"/></g></svg>