<svg fill="none" height="512" viewBox="0 0 24 24" width="512" xmlns="http://www.w3.org/2000/svg"><path clip-rule="evenodd" d="m22.0007 6.97755c0 .55235-.4476 1.00012-.9999 1.00012-.5522 0-.9998-.44777-.9998-1.00012v-1.59161l-4.3554 4.29486c-.3933.3878-1.0264.3833-1.414-.01006-.3877-.39334-.3832-1.02656.01-1.41434l4.3208-4.26077-1.5427-.00001c-.5522-.00001-.9999-.44778-.9999-1.00013 0-.55234.4477-1.00011.9999-1.00011l3.9811.00003c.5523 0 .9999.44777.9999 1.00011zm-20.0007.00087c0 .55222.44776.99989 1.0001.99989s1.00011-.44766 1.00011-.99989v-1.5672l4.26573 4.26485c.39057.39053 1.0238.39053 1.41436 0 .3906-.39049.3906-1.02359 0-1.41407l-4.26574-4.26485 1.56756-.00001c.55234-.00001 1.0001-.44768 1.00009-.99991 0-.55222-.44777-.99989-1.00011-.99989l-3.982.00003c-.55234 0-1.0001.44767-1.0001.99989zm19.0005 9.03958c.5522 0 .9999.4478.9999 1.0001v3.9821c0 .5523-.4477 1.0001-.9999 1.0001h-3.9811c-.5522 0-.9999-.4478-.9999-1.0001s.4477-1.0001.9999-1.0001h1.5672l-4.3502-4.3512c-.3905-.3906-.3905-1.0238 0-1.4144s1.0236-.3906 1.414 0l4.3502 4.3512v-1.5676c0-.5523.4477-1.0001.9999-1.0001zm-19.00017.9993c0-.5523.44776-.9999 1.0001-.9999s1.0001.4476 1.00011.9999v1.5427l4.26059-4.3207c.38778-.3933 1.02099-.3978 1.41432-.0101.39335.3877.39785 1.0208.01005 1.4141l-4.29468 4.3552h1.59163c.55234 0 1.0001.4477 1.00009.9999 0 .5523-.44777.9999-1.00011.9999h-3.982c-.55234 0-1.0001-.4477-1.0001-.9999z" fill="rgb(0,0,0)" fill-rule="evenodd"/></svg>