<svg fill="none" height="512" viewBox="0 0 24 24" width="512" xmlns="http://www.w3.org/2000/svg"><path clip-rule="evenodd" d="m14.0861 5.08581c0-.55228.4477-1 1-1 .5522 0 1 .44772 1 1v1.53601l4.1967-4.31873c.3849-.39607 1.018-.40514 1.4141-.02025s.4052 1.01799.0203 1.41407l-4.265 4.38888 1.6339.00001c.5523.00001 1 .44772 1 1.00001 0 .55228-.4478.99999-1 .99999h-4c-.5523 0-1-.44774-1-1.00002zm-4.0003 0c0-.55228-.4477-1-.99999-1-.55228 0-1 .44772-1 1v1.58577l-4.3787-4.37869c-.39053-.39052-1.02369-.39052-1.41422.00001-.39052.39052-.39052 1.02369.00001 1.41421l4.3787 4.37868-1.58579.00001c-.55229.00001-1 .44772-1 1.00001.00001.55228.44772.99999 1.00001.99999h4c.55228 0 .99998-.44774.99998-1.00002zm5 14.99999c-.5522 0-1-.4477-1-1v-3.9999c0-.5523.4478-1 1-1l4-.0001c.5523 0 1 .4477 1 1s-.4477 1-1 1h-1.5858l4.2071 4.2071c.3905.3905.3905 1.0237 0 1.4142s-1.0237.3905-1.4142 0l-4.2071-4.207v1.5857c0 .5523-.4477 1-1 1zm-4.9138-1c0 .5523-.44773 1-1.00002 1-.55228 0-1-.4477-1-1v-1.6567l-4.48011 4.2929c-.39877.3821-1.03179.3686-1.4139-.0301-.3821-.3988-.3686-1.0318.03017-1.4139l4.37489-4.1922h-1.51106c-.55228 0-.99999-.4477-.99999-1s.44772-1 1.00001-1l3.99999.0001c.55229 0 1.00002.4477 1.00002 1z" fill="rgb(0,0,0)" fill-rule="evenodd"/></svg>