<svg fill="none" height="512" viewBox="0 0 24 24" width="512" xmlns="http://www.w3.org/2000/svg"><path clip-rule="evenodd" d="m13.7022 2.13398c-1.152-.44816-2.3717.27695-2.6455 1.44661l-1.42424-.4925c-1.29507-.44783-2.63246.55216-2.63246 1.96833v.48606l-1.4253-.44358c-1.28323-.39936-2.5747.59747-2.5747 1.98729v9.66021c0 1.3898 1.29147 2.3866 2.5747 1.9873l1.4253-.4436v.486c0 1.4162 1.33739 2.4162 2.63246 1.9684l1.39374-.482c.1836 1.1715 1.3047 1.9739 2.4589 1.6745l6-1.5561c.8903-.2309 1.5149-1.0608 1.5149-2.0128v-11.95728c0-.86487-.5172-1.63902-1.2978-1.9427zm-4.7022 14.78592c.00035-.0158.00035-.0316 0-.0474v-9.91242c.00035-.01585.00035-.03166 0-.04742v-1.85624l1.6838.58224c.1048.03627.2114.0535.3162.05352v9.44002 3.0082c-.1048 0-.2114.0172-.3162.0535l-1.6838.5822zm-2-9.21127v8.41527l-2 .6225v-9.66021zm6-3.63196 6 2.33415v11.95728l-6 1.5561v-4.792z" fill="rgb(0,0,0)" fill-rule="evenodd"/></svg>