<svg fill="none" height="512" viewBox="0 0 24 24" width="512" xmlns="http://www.w3.org/2000/svg"><path clip-rule="evenodd" d="m2 10v8c0 2.2091 1.79086 4 4 4h8c2.2091 0 4-1.7909 4-4 2.2091 0 4-1.7909 4-4v-3.5-4.5c0-2.20914-1.7909-4-4-4h-8c-2.20914 0-4 1.79086-4 4-2.20914 0-4 1.79086-4 4zm6-4h6c2.2091 0 4 1.79086 4 4v6c1.1046 0 2-.8954 2-2v-3.5-4.5c0-1.10457-.8954-2-2-2h-8c-1.10457 0-2 .89543-2 2zm-2 14c-1.10457 0-2-.8954-2-2v-8c0-1.10457.89543-2 2-2h8c1.1046 0 2 .89543 2 2v8c0 1.1046-.8954 2-2 2z" fill="rgb(0,0,0)" fill-rule="evenodd"/></svg>