<svg fill="none" height="512" viewBox="0 0 24 24" width="512" xmlns="http://www.w3.org/2000/svg"><path clip-rule="evenodd" d="m8 5.01777c0-.55556.44772-1.00592 1-1.00592h6c.5523 0 1 .45036 1 1.00592v14.46253c0 .4354-.5127.6651-.8345.3738l-2.4965-2.2602c-.3803-.3443-.9577-.3443-1.338 0l-2.49652 2.2602c-.32176.2913-.83448.0616-.83448-.3738zm1-3.01777h6c1.6569 0 3 1.3511 3 3.01777v14.46253c0 2.1772-2.5636 3.3257-4.1724 1.8692l-1.8276-1.6546-1.8276 1.6546c-1.6088 1.4565-4.1724.308-4.1724-1.8692v-14.46253c0-1.66667 1.34315-3.01777 3-3.01777z" fill="rgb(0,0,0)" fill-rule="evenodd"/></svg>