<svg fill="none" height="512" viewBox="0 0 24 24" width="512" xmlns="http://www.w3.org/2000/svg"><path clip-rule="evenodd" d="m16.2597 5h-.2597c0-1.65685-1.3431-3-3-3h-2c-1.65686 0-3 1.34315-3 3h-.65672-.34328-.00118-2.99882c-.55228 0-1 .44772-1 1 0 .55229.44772 1 1 1h1v12c0 1.6569 1.34315 3 3 3h8c1.6569 0 3-1.3431 3-3v-12h1c.5523 0 1-.44772 1-1 0-.55229-.4477-1-1-1h-2.9982-.0018zm.7403 2h-2-1-4-1-2v2 10c0 .5523.44772 1 1 1h8c.5523 0 1-.4477 1-1v-10zm-7-2h1 1 1 1c0-.55228-.4477-1-1-1h-2c-.5523 0-1 .44772-1 1zm0 4c.5523 0 1 .44772 1 1v7c0 .5523-.4477 1-1 1-.55228 0-1-.4477-1-1v-7c0-.55228.44772-1 1-1zm5 1c0-.55228-.4477-1-1-1s-1 .44772-1 1v7c0 .5523.4477 1 1 1s1-.4477 1-1z" fill="rgb(0,0,0)" fill-rule="evenodd"/></svg>