<svg fill="none" height="512" viewBox="0 0 24 24" width="512" xmlns="http://www.w3.org/2000/svg"><path clip-rule="evenodd" d="m12 6c-.5523 0-1-.44772-1-1v-2c0-.55228.4477-1 1-1s1 .44772 1 1v2c0 .55228-.4477 1-1 1zm0 16c-.5523 0-1-.4477-1-1v-2c0-.5523.4477-1 1-1s1 .4477 1 1v2c0 .5523-.4477 1-1 1zm-7-9c.55228 0 1-.4477 1-1s-.44772-1-1-1h-2c-.55228 0-1 .4477-1 1s.44772 1 1 1zm17-1c0 .5523-.4477 1-1 1h-2c-.5523 0-1-.4477-1-1s.4477-1 1-1h2c.5523 0 1 .4477 1 1zm-5.7579-5.65687c-.3905.39052-.3905 1.02368 0 1.41421.3905.39052 1.0237.39052 1.4142 0l1.4142-1.41422c.3906-.39052.3906-1.02368 0-1.41421-.3905-.39052-1.0236-.39052-1.4142 0zm-11.31249 12.72797c-.39052-.3906-.39052-1.0237 0-1.4143l1.41422-1.4142c.39052-.3905 1.02368-.3905 1.41421 0 .39052.3906.39052 1.0237 0 1.4142l-1.41421 1.4143c-.39053.3905-1.02369.3905-1.41422 0zm12.72669-2.8283c-.3905-.3905-1.0237-.3905-1.4142 0s-.3905 1.0237 0 1.4142l1.4142 1.4142c.3906.3905 1.0237.3905 1.4142 0 .3906-.3905.3906-1.0237 0-1.4142zm-12.72669-11.31374c.39053-.39052 1.02369-.39052 1.41422 0l1.41421 1.41422c.39052.39052.39052 1.02369 0 1.41421s-1.02369.39052-1.41421 0l-1.41422-1.41421c-.39052-.39053-.39052-1.02369 0-1.41422zm3.07039 7.07094c0 2.2091 1.79086 4 4 4 2.2091 0 4-1.7909 4-4 0-2.20914-1.7909-4-4-4-2.20914 0-4 1.79086-4 4zm2 0c0-1.1046.8954-2 2-2s2 .8954 2 2-.8954 2-2 2-2-.8954-2-2z" fill="rgb(0,0,0)" fill-rule="evenodd"/></svg>