<svg fill="none" height="512" viewBox="0 0 24 24" width="512" xmlns="http://www.w3.org/2000/svg"><path clip-rule="evenodd" d="m22 9.5c0 4.1421-3.3579 7.5-7.5 7.5-1.7316 0-3.3262-.5869-4.59568-1.5725-.04781.1011-.11355.1959-.19721.2796l-6 6c-.39053.3905-1.02369.3905-1.41422 0-.39052-.3905-.39052-1.0237 0-1.4142l6-6c.08367-.0837.17847-.1494.27963-.1972-.98567-1.2695-1.57252-2.8641-1.57252-4.5957 0-4.14214 3.3579-7.5 7.5-7.5s7.5 3.35786 7.5 7.5zm-2 0c0-3.03757-2.4624-5.5-5.5-5.5s-5.5 2.46243-5.5 5.5c0 3.0376 2.4624 5.5 5.5 5.5s5.5-2.4624 5.5-5.5zm-4.5-2.5c0-.55228-.4477-1-1-1s-1 .44772-1 1v1.5h-1.5c-.5523 0-1 .44772-1 1 0 .5523.4477 1 1 1h1.5v1.5c0 .5523.4477 1 1 1s1-.4477 1-1v-1.5h1.5c.5523 0 1-.4477 1-1 0-.55228-.4477-1-1-1h-1.5z" fill="rgb(0,0,0)" fill-rule="evenodd"/></svg>