<svg fill="none" height="512" viewBox="0 0 24 24" width="512" xmlns="http://www.w3.org/2000/svg"><path clip-rule="evenodd" d="m14.5 17c4.1421 0 7.5-3.3579 7.5-7.5 0-4.14214-3.3579-7.5-7.5-7.5s-7.5 3.35786-7.5 7.5c0 1.7316.58685 3.3262 1.57252 4.5957-.10116.0478-.19596.1135-.27963.1972l-6 6c-.39052.3905-.39052 1.0237 0 1.4142.39053.3905 1.02369.3905 1.41422 0l6-6c.08366-.0837.1494-.1785.19721-.2796 1.26948.9856 2.86408 1.5725 4.59568 1.5725zm0-13c3.0376 0 5.5 2.46243 5.5 5.5 0 3.0376-2.4624 5.5-5.5 5.5s-5.5-2.4624-5.5-5.5c0-3.03757 2.4624-5.5 5.5-5.5zm-3.5 5.5c0 .5523.4477 1 1 1h5c.5523 0 1-.4477 1-1 0-.55228-.4477-1-1-1h-5c-.5523 0-1 .44772-1 1z" fill="rgb(0,0,0)" fill-rule="evenodd"/></svg>