<svg fill="none" height="512" viewBox="0 0 24 24" width="512" xmlns="http://www.w3.org/2000/svg"><path clip-rule="evenodd" d="m2 9.5c0 4.1421 3.35786 7.5 7.5 7.5 1.7316 0 3.3262-.5869 4.5957-1.5725.0478.1011.1135.1959.1972.2796l6 6c.3905.3905 1.0237.3905 1.4142 0s.3905-1.0237 0-1.4142l-6-6c-.0837-.0837-.1785-.1494-.2796-.1972.9856-1.2695 1.5725-2.8641 1.5725-4.5957 0-4.14214-3.3579-7.5-7.5-7.5-4.14214 0-7.5 3.35786-7.5 7.5zm2 0c0-3.03757 2.46243-5.5 5.5-5.5 3.0376 0 5.5 2.46243 5.5 5.5 0 3.0376-2.4624 5.5-5.5 5.5-3.03757 0-5.5-2.4624-5.5-5.5z" fill="rgb(0,0,0)" fill-rule="evenodd"/></svg>