<svg fill="none" height="512" viewBox="0 0 24 24" width="512" xmlns="http://www.w3.org/2000/svg"><path clip-rule="evenodd" d="m10.9715 20.2157 1.0279-1.7157 1.0536 1.7c-.6362.3943-1.4394.4003-2.0815.0157zm-.4799-13.70825c-.77304-.52502-1.78295-1.00745-2.88413-1.00745-2.52535 0-4.00762 1.85714-3.51353 4.40625.84593 4.36435 7.90546 8.59375 7.90546 8.59375-1.0279 1.7157-1.0275 1.7159-1.0279 1.7157l-.004-.0024-.0066-.004-.0207-.0126c-.0171-.0104-.0409-.0249-.0708-.0434-.0598-.0369-.1444-.0897-.2505-.1573-.212-.1353-.5108-.3305-.86984-.5776-.71538-.4925-1.68363-1.2006-2.68652-2.0599-.99725-.8546-2.06689-1.891-2.95895-3.0452-.87955-1.1381-1.67891-2.5086-1.97311-4.0265-.33568-1.73185-.03391-3.4599 1.02438-4.78671 1.06511-1.33536 2.68666-2.00009 4.45261-2.00009 1.82367 0 3.33963.85898 4.28003 1.54462.0379.02761.0752.05521.1119.08275.0367-.02754.074-.05514.1119-.08275.9404-.68564 2.4563-1.54462 4.28-1.54462 3.9451 0 6.221 3.65474 5.4596 6.8675-.3491 1.473-1.1579 2.8146-2.0391 3.9408-.8935 1.1418-1.9495 2.1732-2.9321 3.0277-.9876.8589-1.9353 1.5686-2.6347 2.0631-.3509.2482-.6423.4443-.849.5802-.1033.068-.1857.121-.2439.1581-.0147.0094-.0279.0178-.0395.0251-.0113.0072-.0211.0134-.0293.0185l-.0201.0126-.0063.004-.0039.0024c-.0004.0002 0 0-1.0536-1.7 0 0 6.8792-4.2637 7.9054-8.59375.4941-2.08483-.9881-4.40625-3.5135-4.40625-1.1012 0-2.1111.48243-2.8841 1.00745-.9227.62666-1.5078 1.31398-1.5078 1.31398s-.5852-.68732-1.5078-1.31398z" fill="rgb(0,0,0)" fill-rule="evenodd"/></svg>