<svg fill="none" height="512" viewBox="0 0 24 24" width="512" xmlns="http://www.w3.org/2000/svg"><path clip-rule="evenodd" d="m17.4917 2c-.8299 0-1.5035.67276-1.5035 1.50266s.6736 1.50266 1.5035 1.50266 1.5035-.67276 1.5035-1.50266-.6736-1.50266-1.5035-1.50266zm-14.40446 13.7104 9.46266-9.45716c.8401-.83964 2.2022-.83963 3.0423 0l2.1696 2.1684c.8402.83963.8402 2.20096 0 3.04056l-9.46259 9.4572c-1.43925 1.4384-3.77272 1.4384-5.21196 0s-1.43925-3.7705-.00001-5.209zm10.87726-8.04336-2.9637 2.96196 2.3828 2.3814 2.9636-2.962c.0589-.05881.0589-.15415 0-.21296l-2.1696-2.1684c-.0589-.0588-.1543-.0588-.2131 0zm-9.46264 9.45726 5.08435-5.0815 2.38269 2.3814-5.08431 5.0814c-.65797.6576-1.72475.6576-2.38272 0-.65798-.6576-.65798-1.7238-.00001-2.3813zm14.49494-4.6057c0-.8299.6736-1.5026 1.5035-1.5026s1.5036.6727 1.5036 1.5026-.6737 1.5027-1.5036 1.5027-1.5035-.6728-1.5035-1.5027zm-7.5192-10.5186c-.8299 0-1.5035.67276-1.5035 1.50266s.6736 1.50266 1.5035 1.50266 1.5035-.67276 1.5035-1.50266-.6736-1.50266-1.5035-1.50266z" fill="rgb(0,0,0)" fill-rule="evenodd"/></svg>