<svg id="Layer_1" enable-background="new 0 0 24 24" height="512" viewBox="0 0 24 24" width="512" xmlns="http://www.w3.org/2000/svg"><g><path d="m19 9h-4c-.5 0-1-.2-1.4-.6s-.6-.9-.6-1.4v-4c0-.6.4-1 1-1s1 .4 1 1v4h4c.6 0 1 .4 1 1s-.4 1-1 1z"/></g><g><path d="m17 22h-10c-.8 0-1.6-.3-2.1-.9-.6-.5-.9-1.3-.9-2.1v-14c0-.8.3-1.6.9-2.1.5-.6 1.3-.9 2.1-.9h7c.3 0 .5.1.7.3l5 5c.2.2.3.4.3.7v11c0 .8-.3 1.6-.9 2.1s-1.3.9-2.1.9zm-10-18c-.3 0-.5.1-.7.3s-.3.4-.3.7v14c0 .3.1.5.3.7s.4.3.7.3h10c.3 0 .5-.1.7-.3s.3-.4.3-.7v-10.6l-4.4-4.4z"/></g><g><path d="m12 18c-.6 0-1-.4-1-1v-6c0-.6.4-1 1-1s1 .4 1 1v6c0 .6-.4 1-1 1z"/></g><g><path d="m15 15c-.3 0-.5-.1-.7-.3l-2.3-2.3-2.3 2.3c-.4.4-1 .4-1.4 0s-.4-1 0-1.4l3-3c.4-.4 1-.4 1.4 0l3 3c.4.4.4 1 0 1.4-.2.2-.4.3-.7.3z"/></g></svg>