<svg id="Layer_1" enable-background="new 0 0 24 24" height="512" viewBox="0 0 24 24" width="512" xmlns="http://www.w3.org/2000/svg"><g><path d="m15.7 21h-7.4c-5 0-6.3-1.4-6.3-6.3v-5.4c0-4.9 1.4-6.3 6.3-6.3h1.6c1 0 1.9.5 2.5 1.3l.8 1.2c.2.3.5.5.9.5h5.1c.8 0 1.5.3 2.1.8.5.5.8 1.3.8 2v5.8c-.1 5-1.5 6.4-6.4 6.4zm-7.4-16c-3.8 0-4.3.5-4.3 4.3v5.4c0 3.8.5 4.3 4.3 4.3h7.4c3.8 0 4.3-.5 4.3-4.3v-5.8c0-.3-.1-.5-.2-.6-.2-.2-.4-.3-.7-.3h-5.1c-1 0-1.9-.5-2.5-1.3l-.8-1.2c-.1-.3-.4-.5-.8-.5z" fill="rgb(0,0,0)"/></g><g><path d="m7 20.5c-.6 0-1-.4-1-1v-3.2c0-5 1.4-6.3 6.3-6.3h8.7c.6 0 1 .4 1 1s-.4 1-1 1h-8.7c-3.8 0-4.3.5-4.3 4.3v3.2c0 .6-.4 1-1 1z" fill="rgb(0,0,0)"/></g></svg>