<?xml version="1.0" encoding="UTF-8"?>
<svg xmlns="http://www.w3.org/2000/svg" xmlns:xlink="http://www.w3.org/1999/xlink" version="1.1" id="Layer_1" x="0px" y="0px" viewBox="0 0 24 24" style="enable-background:new 0 0 24 24;" xml:space="preserve" width="512" height="512">
<style type="text/css">
	
	.st1{fill:rgb(0,0,0);}
</style>
<g>
	<path class="st1" d="M7,22.1c-0.5,0-1-0.1-1.5-0.4C4.6,21.1,4,20.1,4,19.1V5c0-1.7,1.3-3,3-3h10c1.7,0,3,1.3,3,3v14.1   c0,1.1-0.6,2.1-1.5,2.6c-0.9,0.5-2.1,0.5-3,0l-3-1.7c-0.3-0.2-0.7-0.2-1,0l-3,1.7C8,21.9,7.5,22.1,7,22.1z M7,4C6.4,4,6,4.4,6,5   v14.1c0,0.5,0.3,0.8,0.5,0.9c0.1,0.1,0.5,0.3,1,0l3-1.7c0.9-0.5,2.1-0.5,3,0l3,1.7c0.5,0.3,0.8,0.1,1,0c0.1-0.1,0.5-0.3,0.5-0.9V5   c0-0.6-0.4-1-1-1H7z"/>
</g>
</svg>
