<svg fill="none" height="512" viewBox="0 0 24 25" width="512" xmlns="http://www.w3.org/2000/svg"><g fill="rgb(0,0,0)"><path d="m9 11.92c2.48 0 4.5-2.01996 4.5-4.49996s-2.02-4.5-4.5-4.5-4.5 2.02-4.5 4.5 2.02 4.49996 4.5 4.49996zm0-6.99996c1.38 0 2.5 1.12 2.5 2.5s-1.12 2.5-2.5 2.5-2.5-1.12-2.5-2.5 1.12-2.5 2.5-2.5z"/><path d="m12 12.92h-6c-2.21 0-4 1.79-4 4v1c0 2.21 1.79 4 4 4h6c2.21 0 4-1.79 4-4v-1c0-2.21-1.79-4-4-4zm2 5c0 1.1-.9 2-2 2h-6c-1.1 0-2-.9-2-2v-1c0-1.1.9-2 2-2h6c1.1 0 2 .9 2 2z"/><path d="m19.31 13.92h-1.95c-.55 0-1 .45-1 1s.45 1 1 1h1.95c.38 0 .69.31.69.69v1.31c0 1.1-.9 2-2 2h-.64c-.55 0-1 .45-1 1s.45 1 1 1h.64c2.21 0 4-1.79 4-4v-1.31c0-1.48-1.21-2.69-2.69-2.69z"/><path d="m18 12.92c1.65 0 3-1.35 3-2.99996 0-1.65-1.35-3-3-3s-3 1.35-3 3c0 1.64996 1.35 2.99996 3 2.99996zm0-3.99996c.55 0 1 .45 1 1 0 .54996-.45.99996-1 .99996s-1-.45-1-.99996c0-.55.45-1 1-1z"/></g></svg>