<svg id="Layer_1" enable-background="new 0 0 24 24" height="512" viewBox="0 0 24 24" width="512" xmlns="http://www.w3.org/2000/svg"><g><path d="m17 22h-10c-1.7 0-3-1.3-3-3v-14c0-1.7 1.3-3 3-3h10c1.7 0 3 1.3 3 3v14c0 1.7-1.3 3-3 3zm-10-18c-.6 0-1 .4-1 1v14c0 .6.4 1 1 1h10c.6 0 1-.4 1-1v-14c0-.6-.4-1-1-1z"/></g><g><path d="m15 8h-6c-.6 0-1-.4-1-1s.4-1 1-1h6c.6 0 1 .4 1 1s-.4 1-1 1z"/></g><g><path d="m15 12h-6c-.6 0-1-.4-1-1s.4-1 1-1h6c.6 0 1 .4 1 1s-.4 1-1 1z"/></g><g><path d="m13 16h-4c-.6 0-1-.4-1-1s.4-1 1-1h4c.6 0 1 .4 1 1s-.4 1-1 1z"/></g></svg>