<svg id="Layer_1" enable-background="new 0 0 24 24" height="512" viewBox="0 0 24 24" width="512" xmlns="http://www.w3.org/2000/svg"><g><path d="m5.7 22h-1.7c-1.1 0-2-.9-2-2v-1.7c0-.8.3-1.6.9-2.1l13-13c2.1-1.8 4.2-1.3 5.3-.1s1.3 3.3-.3 5l-13 13c-.6.6-1.4.9-2.2.9zm13-18c-.4 0-.9.2-1.5.6l-12.9 13c-.2.2-.3.4-.3.7v1.7h1.7c.3 0 .5-.1.7-.3l13-13c.9-.9.8-1.8.3-2.3-.3-.2-.6-.4-1-.4z" fill="rgb(0,0,0)"/></g><g><path d="m18.7 9.7c-.3 0-.5-.1-.7-.3l-3.4-3.4c-.4-.4-.4-1 0-1.4s1-.4 1.4 0l3.4 3.4c.4.4.4 1 0 1.4-.2.2-.4.3-.7.3z" fill="rgb(0,0,0)"/></g></svg>