<svg id="Layer_1" enable-background="new 0 0 24 24" height="512" viewBox="0 0 24 24" width="512" xmlns="http://www.w3.org/2000/svg"><g><path d="m5 8c-.3 0-.5-.1-.7-.3l-1.5-1.5c-.4-.4-.4-1 0-1.4s1-.4 1.4 0l.8.8 1.8-1.8c.4-.4 1-.4 1.4 0s.4 1 0 1.4l-2.5 2.5c-.2.2-.4.3-.7.3z"/></g><g><path d="m5 14c-.3 0-.5-.1-.7-.3l-1.5-1.5c-.4-.4-.4-1 0-1.4s1-.4 1.4 0l.8.8 1.8-1.8c.4-.4 1-.4 1.4 0s.4 1 0 1.4l-2.5 2.5c-.2.2-.4.3-.7.3z"/></g><g><path d="m5 20c-.3 0-.5-.1-.7-.3l-1.5-1.5c-.4-.4-.4-1 0-1.4s1-.4 1.4 0l.8.8 1.8-1.8c.4-.4 1-.4 1.4 0s.4 1 0 1.4l-2.5 2.5c-.2.2-.4.3-.7.3z"/></g><g><path d="m20 7h-9c-.6 0-1-.4-1-1s.4-1 1-1h9c.6 0 1 .4 1 1s-.4 1-1 1z"/></g><g><path d="m20 13h-9c-.6 0-1-.4-1-1s.4-1 1-1h9c.6 0 1 .4 1 1s-.4 1-1 1z"/></g><g><path d="m20 19h-9c-.6 0-1-.4-1-1s.4-1 1-1h9c.6 0 1 .4 1 1s-.4 1-1 1z"/></g></svg>