<svg fill="none" height="512" viewBox="0 0 24 25" width="512" xmlns="http://www.w3.org/2000/svg"><path d="m21.95 6.55005c-.05-.11-1.33-2.58008-5.43-2.58008-2.28 0-3.67.78999-4.46 1.48999-.81-.71-2.23001-1.5-4.57001-1.5-4.02 0-5.29 2.48009-5.34 2.59009l-.1.20996v11.20999c0 .58.28 1.1201.75 1.4601.46.33 1.06002.4099 1.59002.2199.73-.26 1.87-.57 3.12-.57 1.91 0 3.51999.6501 3.96999.8501.15.07.31.0999.46.0999.04 0 .07-.01.11-.02.04 0 .09.02.13.02.15 0 .31-.0299.46-.0999.44-.2 2.02-.8401 3.92-.8401 1.28 0 2.42.3 3.16.56.53.18 1.12.1 1.58-.23.47-.33.75-.88.75-1.45v-11.22l-.11-.20996zm-10.88 11.08995c-.91-.29-2.15001-.56-3.55001-.56s-2.58999.29-3.45999.57v-10.35996c.3-.39 1.25-1.32007 3.44-1.32007 2.3 0 3.28.95008 3.57 1.33008zm8.99.02c-.88-.28-2.11-.56-3.49-.56s-2.6.27-3.49.55v-10.34995c.29-.39 1.23-1.32007 3.45-1.32007s3.24.94007 3.53 1.32007v10.36995z" fill="rgb(0,0,0)"/></svg>