<svg id="Layer_1" enable-background="new 0 0 24 24" height="512" viewBox="0 0 24 24" width="512" xmlns="http://www.w3.org/2000/svg"><g><path d="m17 22h-10c-.8 0-1.6-.3-2.1-.9-.6-.5-.9-1.3-.9-2.1v-12c0-.8.3-1.6.9-2.1.5-.6 1.3-.9 2.1-.9h2c.6 0 1 .4 1 1s-.4 1-1 1h-2c-.3 0-.5.1-.7.3s-.3.4-.3.7v12c0 .3.1.5.3.7s.4.3.7.3h10c.3 0 .5-.1.7-.3s.3-.4.3-.7v-12c0-.3-.1-.5-.3-.7s-.4-.3-.7-.3h-2c-.6 0-1-.4-1-1s.4-1 1-1h2c.8 0 1.6.3 2.1.9.6.5.9 1.3.9 2.1v12c0 .8-.3 1.6-.9 2.1s-1.3.9-2.1.9z"/></g><g><path d="m13 8h-2c-1.7 0-3-1.3-3-3s1.3-3 3-3h2c1.7 0 3 1.3 3 3s-1.3 3-3 3zm-2-4c-.6 0-1 .4-1 1s.4 1 1 1h2c.6 0 1-.4 1-1s-.4-1-1-1z"/></g><g><path d="m9 13c-.6 0-1-.4-1-1s.4-1 1-1c.6 0 1 .4 1 1s-.4 1-1 1z"/></g><g><path d="m15 13h-2c-.6 0-1-.4-1-1s.4-1 1-1h2c.6 0 1 .4 1 1s-.4 1-1 1z"/></g><g><path d="m9 17c-.6 0-1-.4-1-1s.4-1 1-1c.6 0 1 .4 1 1s-.4 1-1 1z"/></g><g><path d="m15 17h-2c-.6 0-1-.4-1-1s.4-1 1-1h2c.6 0 1 .4 1 1s-.4 1-1 1z"/></g></svg>