<svg fill="none" height="512" viewBox="0 0 25 25" width="512" xmlns="http://www.w3.org/2000/svg"><g fill="rgb(0,0,0)"><path d="m20.9699 12.01c-.55 0-1 .45-1 1v2.55c0 1.9-1.5499 3.45-3.4499 3.45h-7.12004c-1.9 0-3.45001-1.55-3.45001-3.45v-7.12c0-1.9 1.55001-3.45001 3.45001-3.45001h4.53994c.55 0 1-.45 1-1s-.45-1-1-1h-4.53994c-3.01 0-5.45001 2.45001-5.45001 5.45001v7.12c0 3.01 2.45001 5.45 5.45001 5.45h7.12004c3.01 0 5.4499-2.45 5.4499-5.45v-2.55c0-.55-.45-1-1-1z"/><path d="m21.8699 4.39002-.38-.38c-.61-.61-1.11-.92002-1.61-1.02002-.55-.1-1.05.07-1.48.5l-6.87 6.91c-.29.29-.46.68-.49 1.12l-.17 2.16c-.05.36.08.71.37 1 .25.25.55.38.85.38h.11l2.14-.18c.46-.04.87-.22 1.17-.52l6.89-6.89997c.2-.2.65-.66002.54-1.40002-.08-.51-.4-1.01-1.07-1.68zm-7.72 8.50998-1.22.1.1-1.26 6.64-6.67999c.09.07.23.17999.41.36999l.38.38001c.18.18.3.30997.37.40997l-6.68 6.69002z"/></g></svg>