<svg fill="none" height="512" viewBox="0 0 24 24" width="512" xmlns="http://www.w3.org/2000/svg"><path clip-rule="evenodd" d="m6.28655 11.6098c-.38699-.394-.38128-1.0272.01274-1.4142.39403-.38695 1.02717-.38125 1.41416.0128l3.28655 3.3463v-10.5547c0-.55228.4477-1 1-1s1 .44772 1 1v10.5547l3.2866-3.3463c.3869-.39405 1.0201-.39975 1.4141-.0128.394.387.3997 1.0202.0127 1.4142l-5 5.0909c-.188.1915-.4451.2993-.7134.2993s-.5254-.1078-.7134-.2993zm-1.28655 8.3902c-.55228 0-1 .4477-1 1s.44772 1 1 1h14c.5523 0 1-.4477 1-1s-.4477-1-1-1z" fill="rgb(0,0,0)" fill-rule="evenodd"/></svg>