<svg fill="none" height="512" viewBox="0 0 24 24" width="512" xmlns="http://www.w3.org/2000/svg"><g fill="rgb(0,0,0)"><path d="m11.96 19.7c-4.40999 0-7.59999-3.23-9.10999-5.15-1.19-1.52-1.15001-3.61.09999-5.09 1.98-2.35 5.17-5.15 9.06-5.15s7.08 2.81 9.05 5.18c1.23 1.48 1.25 3.64.04 5.13-1.88 2.32-4.99 5.09-9.13 5.09zm.05-13.39c-3.12 0-5.82 2.42-7.53 4.44-.63.75-.65 1.8-.05 2.57 1.29 1.64 3.98001 4.39 7.54 4.39 3.36 0 5.98-2.36 7.58-4.35.62-.76.61-1.83-.03-2.59-1.39-1.66-4.2-4.46-7.51-4.46z"/><path d="m12 16c-2.21 0-4-1.79-4-4s1.79-4 4-4 4 1.79 4 4-1.79 4-4 4zm0-6c-1.1 0-2 .9-2 2s.9 2 2 2 2-.9 2-2-.9-2-2-2z"/></g></svg>