<svg fill="none" height="512" viewBox="0 0 24 24" width="512" xmlns="http://www.w3.org/2000/svg"><path clip-rule="evenodd" d="m5 4c0-1.10457.89543-2 2-2h10c1.1046 0 2 .89543 2 2v16c0 1.1046-.8954 2-2 2h-10c-1.10457 0-2-.8954-2-2v-.5165-4.3835-10.37682zm12 16h-6.1281l1.9159-.8211c.7354-.3152 1.2122-1.0382 1.2122-1.8383v-9.76028c0-.71771-.3846-1.3804-1.0077-1.73648l-3.22674-1.84384h7.23444zm-10-4.9v-10.37682l5 2.85714v9.76028l-5 2.1429zm3-4.1c-.55228 0-1 .4477-1 1s.44772 1 1 1c.5523 0 1-.4477 1-1s-.4477-1-1-1z" fill="rgb(0,0,0)" fill-rule="evenodd"/></svg>