<svg fill="none" height="512" viewBox="0 0 24 24" width="512" xmlns="http://www.w3.org/2000/svg"><g fill="rgb(0,0,0)"><path d="m21.06 9.47999c-1.97-2.36-5.13-5.18-9.05-5.18-.75 0-1.52.11-2.28.32-.53.15-.84001.7-.69001 1.23s.70002.84 1.23001.69c.58-.16 1.17-.25 1.74-.25 3.3 0 6.12 2.79 7.51 4.46001.63.76.64 1.83.03 2.59-.24.3-.51.61-.81.93-.38.4-.36 1.04.04 1.41.19.18.44.27.69.27.27 0 .53-.11.73-.31.34-.36.64-.71.91-1.04 1.21-1.49 1.19-3.65-.04-5.13001z"/><path d="m8.05 6.64c-.03-.08-.05001-.16-.10001-.24-.13-.19-.31-.3-.5-.37l-1.73999-1.74c-.39-.39-1.03-.39-1.41 0-.39.39-.39 1.02 0 1.41l1.22 1.21999c-.88.71-1.73 1.55001-2.56 2.53001-1.25 1.48-1.29 3.57-.1 5.09 1.51 1.92 4.7 5.15 9.11 5.15 1.67 0 3.31-.48 4.9-1.39l1.4 1.41c.2.2.45.29.71.29s.51-.1.71-.29c.39-.39.39-1.02 0-1.41l-11.63001-11.65zm2.02 4.86 2.43 2.43c-.16.04-.33.07-.5.07-1.1 0-2-.9-2-2 0-.17.03-.34.07-.5zm1.89 6.2c-3.56 0-6.25-2.75-7.54-4.39-.6-.76-.58-1.82.05-2.56.79-.94 1.61-1.74 2.45-2.39l1.63999 1.64c-.36.61-.56999 1.29-.56999 2.01 0 2.21 1.79 4 4 4 .71 0 1.4-.21 2-.56l1.39 1.4c-1.13.57-2.28.86-3.43.86z"/></g></svg>