<svg fill="none" height="512" viewBox="0 0 24 24" width="512" xmlns="http://www.w3.org/2000/svg"><g fill="rgb(0,0,0)"><path d="m22.0303 1.96969c.2038.20373.2728.50615.1776.77809l-6.65 19.00002c-.1016.2902-.3701.4891-.6773.5016-.3073.0125-.5911-.1638-.716-.4448l-3.6828-8.2864-8.2864-3.68282c-.28101-.12489-.45731-.40867-.44477-.71593.01253-.30726.21136-.57574.50161-.67732l18.99996-6.65c.272-.09518.5744-.02617.7781.17756zm-17.49699 7.26328 6.82129 3.03173c.1697.0754.3054.211.3808.3807l3.0317 6.8213 5.5104-15.7442z"/><path d="m22.0303 1.96969c.2929.29289.293.76777.0001 1.06066l-10.45 10.45005c-.2929.2928-.7678.2928-1.0607 0-.2929-.2929-.2929-.7678 0-1.0607l10.45-10.45001c.2929-.29289.7677-.29289 1.0606 0z"/></g></svg>